<svg width="34" height="34" viewBox="0 0 34 34" fill="none" xmlns="http://www.w3.org/2000/svg">
<path d="M33.7392 21.1573H0.260864V3.70059C0.260864 2.58873 1.16515 1.68445 2.277 1.68445H31.723C32.8345 1.68445 33.7392 2.58873 33.7392 3.70059V21.1573ZM1.00483 20.4133H32.9952V3.70059C32.9952 2.99903 32.4246 2.42841 31.723 2.42841H2.277C1.57545 2.42841 1.00483 2.99903 1.00483 3.70059V20.4133Z" fill="#331B3B"/>
<path d="M31.723 25.7788H2.277C1.16515 25.7788 0.260864 24.8741 0.260864 23.7626V20.4133H33.7392V23.7626C33.7392 24.8741 32.8345 25.7788 31.723 25.7788ZM1.00483 21.1573V23.7626C1.00483 24.4642 1.57545 25.0348 2.277 25.0348H31.723C32.4246 25.0348 32.9952 24.4642 32.9952 23.7626V21.1573H1.00483Z" fill="#331B3B"/>
<path d="M22.1426 30.3776H11.8573C11.6966 30.3776 11.5542 30.2746 11.5039 30.1217C11.4537 29.9688 11.5077 29.8014 11.6371 29.7062C13.0499 28.6687 13.9929 27.0837 14.2242 25.3577C14.2488 25.1732 14.4065 25.0352 14.5929 25.0352H19.4063C19.5927 25.0352 19.7504 25.1729 19.7749 25.3577C20.0063 27.0841 20.9497 28.6687 22.3624 29.7062C22.4923 29.8014 22.5458 29.9688 22.4956 30.1217C22.4454 30.2746 22.3037 30.3776 22.1426 30.3776ZM12.8661 29.6336H21.1342C20.0766 28.5921 19.3546 27.2392 19.089 25.7788H14.9109C14.6457 27.2392 13.9237 28.5921 12.8661 29.6336Z" fill="#331B3B"/>
<path d="M22.9718 32.316H11.0282C10.2887 32.316 9.68726 31.7145 9.68726 30.975C9.68726 30.2355 10.2887 29.634 11.0282 29.634H22.9718C23.7113 29.634 24.3128 30.2355 24.3128 30.975C24.3128 31.7145 23.7113 32.316 22.9718 32.316ZM11.0282 30.3776C10.699 30.3776 10.4312 30.6455 10.4312 30.9747C10.4312 31.3039 10.699 31.5717 11.0282 31.5717H22.9718C23.3014 31.5717 23.5689 31.3039 23.5689 30.9747C23.5689 30.6455 23.301 30.3776 22.9718 30.3776H11.0282Z" fill="#331B3B"/>
<path d="M17.6327 23.468H16.3672C16.1619 23.468 15.9952 23.3018 15.9952 23.096C15.9952 22.8903 16.1619 22.7241 16.3672 22.7241H17.6327C17.8384 22.7241 18.0047 22.8903 18.0047 23.096C18.0047 23.3018 17.8384 23.468 17.6327 23.468Z" fill="#331B3B"/>
<path d="M13.7582 15.0393C12.4593 15.0393 12.0851 13.8832 11.7841 12.9544C11.4761 12.0032 11.2529 11.4203 10.5703 11.4203C10.365 11.4203 10.1984 11.2537 10.1984 11.0484C10.1984 10.843 10.365 10.6764 10.5703 10.6764C11.2529 10.6764 11.4765 10.0935 11.7845 9.14233C12.0854 8.21312 12.4596 7.05737 13.7586 7.05737C13.9639 7.05737 14.1306 7.22402 14.1306 7.42935C14.1306 7.63469 13.9639 7.80134 13.7586 7.80134C13.0373 7.80134 12.8074 8.39799 12.4924 9.37147C12.3023 9.95883 12.0821 10.6381 11.6145 11.0484C12.0821 11.4587 12.3023 12.1379 12.4924 12.7252C12.8074 13.6987 13.0373 14.2954 13.7586 14.2954C13.9639 14.2954 14.1306 14.462 14.1306 14.6674C14.1306 14.8727 13.9636 15.0393 13.7582 15.0393Z" fill="#331B3B"/>
<path d="M20.2419 15.0393C20.0361 15.0393 19.8699 14.8727 19.8699 14.6674C19.8699 14.462 20.0361 14.2954 20.2419 14.2954C20.9628 14.2954 21.193 13.6987 21.5081 12.7249C21.6982 12.1379 21.9184 11.4583 22.386 11.0484C21.918 10.6381 21.6978 9.95883 21.5081 9.37184C21.1926 8.39799 20.9628 7.80134 20.2419 7.80134C20.0361 7.80134 19.8699 7.63469 19.8699 7.42935C19.8699 7.22402 20.0361 7.05737 20.2419 7.05737C21.5408 7.05737 21.915 8.21349 22.216 9.14233C22.524 10.0935 22.7471 10.6764 23.4297 10.6764C23.6354 10.6764 23.8017 10.843 23.8017 11.0484C23.8017 11.2537 23.6354 11.4203 23.4297 11.4203C22.7471 11.4203 22.5236 12.0032 22.2156 12.9544C21.915 13.8832 21.5408 15.0393 20.2419 15.0393Z" fill="#331B3B"/>
<path d="M15.5377 15.9035C15.4987 15.9035 15.4589 15.8971 15.4194 15.8841C15.2249 15.8186 15.1196 15.6077 15.1851 15.4132L18.1907 6.44732C18.2562 6.25277 18.4671 6.14787 18.6616 6.21297C18.8565 6.27844 18.9618 6.48935 18.8963 6.6839L15.8907 15.6498C15.8383 15.8049 15.6932 15.9035 15.5377 15.9035Z" fill="#331B3B"/>
</svg>
