<svg width="163" height="23" viewBox="0 0 163 23" fill="none" xmlns="http://www.w3.org/2000/svg">
<path d="M8.232 1.008C11.384 1.008 13.728 1.728 15.264 3.168C16.8 4.592 17.568 6.64 17.568 9.312C17.568 11.056 17.192 12.584 16.44 13.896C15.688 15.192 14.592 16.2 13.152 16.92C11.728 17.64 10.016 18 8.016 18C7.632 18 7.08 17.992 6.36 17.976C5.656 17.944 5.04 17.928 4.512 17.928C3.808 17.928 3.112 17.936 2.424 17.952C1.752 17.952 1.216 17.968 0.816 18V17.52C1.328 17.488 1.712 17.424 1.968 17.328C2.224 17.232 2.392 17.04 2.472 16.752C2.568 16.464 2.616 16.032 2.616 15.456V3.552C2.616 2.96 2.568 2.528 2.472 2.256C2.392 1.968 2.216 1.776 1.944 1.68C1.688 1.568 1.312 1.504 0.816 1.488V1.008C1.216 1.024 1.752 1.048 2.424 1.08C3.112 1.096 3.792 1.096 4.464 1.08C5.04 1.064 5.688 1.048 6.408 1.032C7.144 1.016 7.752 1.008 8.232 1.008ZM8.208 1.44C7.472 1.44 6.992 1.576 6.768 1.848C6.544 2.12 6.432 2.672 6.432 3.504V15.504C6.432 16.336 6.544 16.888 6.768 17.16C7.008 17.432 7.496 17.568 8.232 17.568C9.576 17.568 10.632 17.256 11.4 16.632C12.184 15.992 12.744 15.064 13.08 13.848C13.416 12.632 13.584 11.152 13.584 9.408C13.584 6.72 13.168 4.72 12.336 3.408C11.504 2.096 10.128 1.44 8.208 1.44ZM27.7048 5.256C28.2168 5.256 28.6328 5.368 28.9528 5.592C29.2728 5.8 29.5048 6.072 29.6488 6.408C29.8088 6.744 29.8888 7.096 29.8888 7.464C29.8888 8.056 29.7128 8.544 29.3608 8.928C29.0248 9.296 28.5768 9.48 28.0168 9.48C27.4568 9.48 27.0168 9.344 26.6968 9.072C26.3928 8.784 26.2408 8.408 26.2408 7.944C26.2408 7.496 26.3368 7.128 26.5288 6.84C26.7368 6.536 26.9928 6.28 27.2968 6.072C27.0728 6.008 26.8488 6.016 26.6248 6.096C26.2088 6.16 25.8328 6.36 25.4968 6.696C25.1768 7.016 24.9208 7.4 24.7288 7.848C24.5368 8.296 24.4408 8.736 24.4408 9.168V15.528C24.4408 16.296 24.6248 16.816 24.9928 17.088C25.3768 17.36 25.9448 17.496 26.6968 17.496V18C26.3288 17.984 25.7928 17.968 25.0888 17.952C24.3848 17.92 23.6488 17.904 22.8808 17.904C22.2408 17.904 21.5928 17.92 20.9368 17.952C20.2808 17.968 19.7848 17.984 19.4488 18V17.496C20.0088 17.496 20.4008 17.376 20.6248 17.136C20.8648 16.896 20.9848 16.44 20.9848 15.768V8.208C20.9848 7.488 20.8728 6.96 20.6488 6.624C20.4408 6.272 20.0408 6.096 19.4488 6.096V5.592C19.9608 5.64 20.4568 5.664 20.9368 5.664C21.6088 5.664 22.2328 5.64 22.8088 5.592C23.4008 5.528 23.9448 5.44 24.4408 5.328V7.56C24.6328 7.128 24.8888 6.736 25.2088 6.384C25.5288 6.032 25.8968 5.76 26.3128 5.568C26.7288 5.36 27.1928 5.256 27.7048 5.256ZM36.7558 5.256C38.1638 5.256 39.2678 5.672 40.0678 6.504C40.8678 7.336 41.2678 8.696 41.2678 10.584H33.3718L33.3238 10.128H38.2438C38.2598 9.344 38.2118 8.624 38.0998 7.968C37.9878 7.296 37.8118 6.76 37.5718 6.36C37.3318 5.96 37.0118 5.76 36.6118 5.76C36.0518 5.76 35.5718 6.112 35.1718 6.816C34.7878 7.52 34.5558 8.688 34.4758 10.32L34.5478 10.464C34.5318 10.656 34.5158 10.856 34.4998 11.064C34.4998 11.272 34.4998 11.488 34.4998 11.712C34.4998 12.816 34.6518 13.712 34.9558 14.4C35.2758 15.088 35.6758 15.592 36.1558 15.912C36.6358 16.216 37.1238 16.368 37.6198 16.368C38.0998 16.368 38.6198 16.248 39.1798 16.008C39.7558 15.768 40.2918 15.248 40.7878 14.448L41.2198 14.592C41.0278 15.2 40.7238 15.792 40.3078 16.368C39.8918 16.944 39.3638 17.416 38.7238 17.784C38.0838 18.152 37.3158 18.336 36.4198 18.336C35.3318 18.336 34.3718 18.104 33.5398 17.64C32.7078 17.176 32.0518 16.472 31.5718 15.528C31.1078 14.584 30.8758 13.384 30.8758 11.928C30.8758 10.44 31.1238 9.2 31.6198 8.208C32.1318 7.216 32.8278 6.48 33.7078 6C34.6038 5.504 35.6198 5.256 36.7558 5.256ZM46.0656 18.168C44.9936 18.168 44.2176 17.888 43.7376 17.328C43.2576 16.768 43.0176 16.088 43.0176 15.288C43.0176 14.6 43.1696 14.04 43.4736 13.608C43.7936 13.176 44.2016 12.824 44.6976 12.552C45.1936 12.264 45.7136 12.032 46.2576 11.856C46.8176 11.664 47.3456 11.48 47.8416 11.304C48.3536 11.112 48.7616 10.896 49.0656 10.656C49.3856 10.416 49.5456 10.112 49.5456 9.744V7.872C49.5456 7.456 49.4736 7.088 49.3296 6.768C49.2016 6.432 48.9936 6.176 48.7056 6C48.4336 5.824 48.0736 5.736 47.6256 5.736C47.3056 5.736 46.9856 5.784 46.6656 5.88C46.3456 5.96 46.0816 6.104 45.8736 6.312C46.3216 6.472 46.6656 6.72 46.9056 7.056C47.1616 7.376 47.2896 7.744 47.2896 8.16C47.2896 8.704 47.0976 9.136 46.7136 9.456C46.3456 9.776 45.9056 9.936 45.3936 9.936C44.8176 9.936 44.3776 9.76 44.0736 9.408C43.7856 9.04 43.6416 8.6 43.6416 8.088C43.6416 7.624 43.7536 7.24 43.9776 6.936C44.2176 6.632 44.5456 6.344 44.9616 6.072C45.4096 5.816 45.9456 5.616 46.5696 5.472C47.2096 5.328 47.8976 5.256 48.6336 5.256C49.3696 5.256 50.0336 5.336 50.6256 5.496C51.2176 5.64 51.7136 5.912 52.1136 6.312C52.4816 6.68 52.7216 7.136 52.8336 7.68C52.9456 8.208 53.0016 8.88 53.0016 9.696V16.224C53.0016 16.608 53.0416 16.88 53.1216 17.04C53.2016 17.2 53.3376 17.28 53.5296 17.28C53.6896 17.28 53.8416 17.24 53.9856 17.16C54.1296 17.08 54.2656 16.984 54.3936 16.872L54.6336 17.28C54.2976 17.568 53.9056 17.792 53.4576 17.952C53.0256 18.096 52.5376 18.168 51.9936 18.168C51.0336 18.168 50.3936 17.976 50.0736 17.592C49.7696 17.192 49.6096 16.736 49.5936 16.224C49.1936 16.88 48.6976 17.368 48.1056 17.688C47.5296 18.008 46.8496 18.168 46.0656 18.168ZM47.9136 16.632C48.2176 16.632 48.4976 16.56 48.7536 16.416C49.0256 16.272 49.2896 16.016 49.5456 15.648V10.728C49.3536 11.048 49.0816 11.32 48.7296 11.544C48.3936 11.752 48.0416 11.984 47.6736 12.24C47.3216 12.48 47.0256 12.792 46.7856 13.176C46.5456 13.56 46.4256 14.072 46.4256 14.712C46.4256 15.4 46.5696 15.896 46.8576 16.2C47.1456 16.488 47.4976 16.632 47.9136 16.632ZM64.2714 5.256C64.9434 5.256 65.4874 5.344 65.9034 5.52C66.3194 5.68 66.6554 5.904 66.9114 6.192C67.1674 6.496 67.3514 6.896 67.4634 7.392C67.5754 7.872 67.6314 8.512 67.6314 9.312V15.768C67.6314 16.44 67.7354 16.896 67.9434 17.136C68.1514 17.376 68.5114 17.496 69.0234 17.496V18C68.7354 17.984 68.2954 17.968 67.7034 17.952C67.1274 17.92 66.5594 17.904 65.9994 17.904C65.4234 17.904 64.8554 17.92 64.2954 17.952C63.7354 17.968 63.3114 17.984 63.0234 18V17.496C63.4554 17.496 63.7514 17.376 63.9114 17.136C64.0874 16.896 64.1754 16.44 64.1754 15.768V8.304C64.1754 7.904 64.1434 7.56 64.0794 7.272C64.0154 6.968 63.8874 6.736 63.6954 6.576C63.5194 6.4 63.2474 6.312 62.8794 6.312C62.4634 6.312 62.0794 6.432 61.7274 6.672C61.3754 6.912 61.0874 7.248 60.8634 7.68C60.6554 8.096 60.5514 8.568 60.5514 9.096V15.768C60.5514 16.44 60.6394 16.896 60.8154 17.136C60.9914 17.376 61.2874 17.496 61.7034 17.496V18C61.4474 17.984 61.0474 17.968 60.5034 17.952C59.9754 17.92 59.4314 17.904 58.8714 17.904C58.2634 17.904 57.6394 17.92 56.9994 17.952C56.3594 17.968 55.8794 17.984 55.5594 18V17.496C56.1194 17.496 56.5114 17.376 56.7354 17.136C56.9754 16.896 57.0954 16.44 57.0954 15.768V8.208C57.0954 7.488 56.9834 6.96 56.7594 6.624C56.5514 6.272 56.1514 6.096 55.5594 6.096V5.592C56.0714 5.64 56.5674 5.664 57.0474 5.664C57.7194 5.664 58.3434 5.64 58.9194 5.592C59.5114 5.528 60.0554 5.44 60.5514 5.328V7.488C60.9354 6.688 61.4554 6.12 62.1114 5.784C62.7674 5.432 63.4874 5.256 64.2714 5.256ZM71.4954 5.256C72.1674 5.256 72.7114 5.344 73.1274 5.52C73.5434 5.68 73.8794 5.904 74.1354 6.192C74.3914 6.496 74.5754 6.896 74.6874 7.392C74.7994 7.872 74.8554 8.512 74.8554 9.312V15.768C74.8554 16.44 74.9674 16.896 75.1914 17.136C75.4314 17.376 75.8314 17.496 76.3914 17.496V18C76.0874 17.984 75.6314 17.968 75.0234 17.952C74.4154 17.92 73.8154 17.904 73.2234 17.904C72.6474 17.904 72.0794 17.92 71.5194 17.952C70.9594 17.968 70.5354 17.984 70.2474 18V17.496C70.6794 17.496 70.9754 17.376 71.1354 17.136C71.3114 16.896 71.3994 16.44 71.3994 15.768V8.304C71.3994 7.904 71.3594 7.56 71.2794 7.272C71.2154 6.968 71.0794 6.736 70.8714 6.576C70.6794 6.4 70.3754 6.312 69.9594 6.312C69.3354 6.312 68.7914 6.592 68.3274 7.152C67.8634 7.696 67.6234 8.368 67.6074 9.168L67.4874 7.704C67.9194 6.744 68.4874 6.096 69.1914 5.76C69.9114 5.424 70.6794 5.256 71.4954 5.256ZM90.6861 0.959999L96.5181 15.984C96.7421 16.56 96.9901 16.96 97.2621 17.184C97.5501 17.392 97.8061 17.504 98.0301 17.52V18C97.5501 17.968 96.9821 17.952 96.3261 17.952C95.6861 17.936 95.0381 17.928 94.3821 17.928C93.6461 17.928 92.9501 17.936 92.2941 17.952C91.6381 17.952 91.1181 17.968 90.7341 18V17.52C91.5501 17.488 92.0621 17.352 92.2701 17.112C92.4941 16.856 92.4461 16.32 92.1261 15.504L88.0461 4.344L88.4781 3.72L84.8301 13.224C84.3821 14.408 84.1581 15.304 84.1581 15.912C84.1741 16.52 84.3741 16.936 84.7581 17.16C85.1421 17.368 85.6541 17.488 86.2941 17.52V18C85.7661 17.968 85.2621 17.952 84.7821 17.952C84.3021 17.936 83.8141 17.928 83.3181 17.928C82.9661 17.928 82.6301 17.936 82.3101 17.952C82.0061 17.952 81.7341 17.968 81.4941 18V17.52C81.8301 17.456 82.1741 17.24 82.5261 16.872C82.8781 16.504 83.2221 15.88 83.5581 15L89.0301 0.959999C89.2861 0.975999 89.5581 0.983999 89.8461 0.983999C90.1501 0.983999 90.4301 0.975999 90.6861 0.959999ZM92.3661 11.088V11.568H85.2141L85.4541 11.088H92.3661ZM103.334 22.512C102.342 22.512 101.454 22.424 100.67 22.248C99.9019 22.088 99.2939 21.832 98.8459 21.48C98.4139 21.144 98.1979 20.728 98.1979 20.232C98.1979 19.736 98.4219 19.288 98.8699 18.888C99.3179 18.504 99.9819 18.2 100.862 17.976L101.078 18.36C100.774 18.6 100.55 18.856 100.406 19.128C100.278 19.416 100.214 19.712 100.214 20.016C100.214 20.688 100.518 21.2 101.126 21.552C101.75 21.92 102.59 22.104 103.646 22.104C104.366 22.104 105.006 22.008 105.566 21.816C106.142 21.624 106.59 21.336 106.91 20.952C107.246 20.568 107.414 20.096 107.414 19.536C107.414 19.056 107.238 18.648 106.886 18.312C106.534 17.992 105.83 17.832 104.774 17.832H103.286C102.63 17.832 102.054 17.76 101.558 17.616C101.078 17.472 100.702 17.248 100.43 16.944C100.158 16.624 100.022 16.224 100.022 15.744C100.022 15.072 100.286 14.48 100.814 13.968C101.342 13.456 102.126 12.976 103.166 12.528L103.406 12.72C103.102 12.912 102.814 13.12 102.542 13.344C102.286 13.552 102.158 13.824 102.158 14.16C102.158 14.672 102.478 14.928 103.118 14.928H105.734C107.062 14.928 108.166 15.176 109.046 15.672C109.926 16.152 110.366 16.96 110.366 18.096C110.366 18.88 110.11 19.608 109.598 20.28C109.102 20.952 108.334 21.488 107.294 21.888C106.254 22.304 104.934 22.512 103.334 22.512ZM103.574 12.888C102.214 12.888 101.078 12.584 100.166 11.976C99.2539 11.352 98.7979 10.384 98.7979 9.072C98.7979 7.744 99.2539 6.776 100.166 6.168C101.078 5.56 102.214 5.256 103.574 5.256C104.95 5.256 106.086 5.56 106.982 6.168C107.894 6.776 108.35 7.744 108.35 9.072C108.35 10.384 107.894 11.352 106.982 11.976C106.086 12.584 104.95 12.888 103.574 12.888ZM103.574 12.456C104.006 12.456 104.342 12.216 104.582 11.736C104.822 11.24 104.942 10.352 104.942 9.072C104.942 7.792 104.822 6.912 104.582 6.432C104.342 5.936 104.006 5.688 103.574 5.688C103.158 5.688 102.822 5.936 102.566 6.432C102.326 6.912 102.206 7.792 102.206 9.072C102.206 10.352 102.326 11.24 102.566 11.736C102.822 12.216 103.158 12.456 103.574 12.456ZM107.318 7.32L106.838 7.152C107.078 6.528 107.462 6.008 107.99 5.592C108.534 5.176 109.118 4.968 109.742 4.968C110.254 4.968 110.638 5.112 110.894 5.4C111.166 5.672 111.302 6.032 111.302 6.48C111.302 6.96 111.174 7.32 110.918 7.56C110.662 7.784 110.374 7.896 110.054 7.896C109.782 7.896 109.526 7.8 109.286 7.608C109.062 7.416 108.934 7.128 108.902 6.744C108.87 6.344 109.006 5.832 109.31 5.208L109.478 5.352C108.87 5.576 108.414 5.84 108.11 6.144C107.806 6.432 107.542 6.824 107.318 7.32ZM118 5.256C119.408 5.256 120.512 5.672 121.312 6.504C122.112 7.336 122.512 8.696 122.512 10.584H114.616L114.568 10.128H119.488C119.504 9.344 119.456 8.624 119.344 7.968C119.232 7.296 119.056 6.76 118.816 6.36C118.576 5.96 118.256 5.76 117.856 5.76C117.296 5.76 116.816 6.112 116.416 6.816C116.032 7.52 115.8 8.688 115.72 10.32L115.792 10.464C115.776 10.656 115.76 10.856 115.744 11.064C115.744 11.272 115.744 11.488 115.744 11.712C115.744 12.816 115.896 13.712 116.2 14.4C116.52 15.088 116.92 15.592 117.4 15.912C117.88 16.216 118.368 16.368 118.864 16.368C119.344 16.368 119.864 16.248 120.424 16.008C121 15.768 121.536 15.248 122.032 14.448L122.464 14.592C122.272 15.2 121.968 15.792 121.552 16.368C121.136 16.944 120.608 17.416 119.968 17.784C119.328 18.152 118.56 18.336 117.664 18.336C116.576 18.336 115.616 18.104 114.784 17.64C113.952 17.176 113.296 16.472 112.816 15.528C112.352 14.584 112.12 13.384 112.12 11.928C112.12 10.44 112.368 9.2 112.864 8.208C113.376 7.216 114.072 6.48 114.952 6C115.848 5.504 116.864 5.256 118 5.256ZM132.93 5.256C133.602 5.256 134.146 5.344 134.562 5.52C134.994 5.68 135.33 5.904 135.57 6.192C135.826 6.496 136.01 6.888 136.122 7.368C136.25 7.848 136.314 8.496 136.314 9.312V15.768C136.314 16.44 136.426 16.896 136.65 17.136C136.89 17.376 137.29 17.496 137.85 17.496V18C137.546 17.984 137.09 17.968 136.482 17.952C135.874 17.92 135.274 17.904 134.682 17.904C134.074 17.904 133.474 17.92 132.882 17.952C132.306 17.968 131.866 17.984 131.562 18V17.496C132.042 17.496 132.378 17.376 132.57 17.136C132.762 16.896 132.858 16.44 132.858 15.768V8.304C132.858 7.904 132.818 7.56 132.738 7.272C132.658 6.968 132.514 6.736 132.306 6.576C132.098 6.4 131.786 6.312 131.37 6.312C130.698 6.312 130.13 6.576 129.666 7.104C129.218 7.632 128.994 8.296 128.994 9.096V15.768C128.994 16.44 129.09 16.896 129.282 17.136C129.49 17.376 129.826 17.496 130.29 17.496V18C130.002 17.984 129.578 17.968 129.018 17.952C128.474 17.92 127.906 17.904 127.314 17.904C126.706 17.904 126.082 17.92 125.442 17.952C124.802 17.968 124.322 17.984 124.002 18V17.496C124.562 17.496 124.954 17.376 125.178 17.136C125.418 16.896 125.538 16.44 125.538 15.768V8.208C125.538 7.488 125.426 6.96 125.202 6.624C124.994 6.272 124.594 6.096 124.002 6.096V5.592C124.514 5.64 125.01 5.664 125.49 5.664C126.162 5.664 126.786 5.64 127.362 5.592C127.954 5.528 128.498 5.44 128.994 5.328V7.488C129.394 6.672 129.938 6.096 130.626 5.76C131.314 5.424 132.082 5.256 132.93 5.256ZM145.224 5.256C145.848 5.256 146.416 5.328 146.928 5.472C147.456 5.6 147.888 5.768 148.224 5.976C148.64 6.232 148.96 6.552 149.184 6.936C149.424 7.304 149.544 7.736 149.544 8.232C149.544 8.792 149.368 9.256 149.016 9.624C148.664 9.976 148.208 10.152 147.648 10.152C147.088 10.152 146.64 9.992 146.304 9.672C145.968 9.352 145.8 8.92 145.8 8.376C145.8 7.864 145.96 7.44 146.28 7.104C146.6 6.752 146.968 6.52 147.384 6.408C147.256 6.248 147.064 6.112 146.808 6C146.552 5.888 146.264 5.832 145.944 5.832C145.448 5.832 145.008 5.976 144.624 6.264C144.256 6.552 143.944 6.952 143.688 7.464C143.432 7.976 143.232 8.576 143.088 9.264C142.96 9.952 142.896 10.704 142.896 11.52C142.896 12.752 143.048 13.72 143.352 14.424C143.672 15.128 144.072 15.624 144.552 15.912C145.048 16.2 145.56 16.344 146.088 16.344C146.536 16.344 147.048 16.224 147.624 15.984C148.2 15.728 148.736 15.2 149.232 14.4L149.64 14.544C149.464 15.136 149.176 15.728 148.776 16.32C148.376 16.912 147.856 17.4 147.216 17.784C146.576 18.152 145.792 18.336 144.864 18.336C143.824 18.336 142.88 18.112 142.032 17.664C141.2 17.2 140.528 16.496 140.016 15.552C139.52 14.592 139.272 13.36 139.272 11.856C139.272 10.416 139.528 9.208 140.04 8.232C140.568 7.24 141.28 6.496 142.176 6C143.072 5.504 144.088 5.256 145.224 5.256ZM162.772 5.592V6.072C162.468 6.152 162.18 6.344 161.908 6.648C161.636 6.936 161.372 7.432 161.116 8.136L157.732 17.64L156.844 19.32L151.612 7.44C151.34 6.816 151.068 6.44 150.796 6.312C150.54 6.168 150.316 6.096 150.124 6.096V5.592C150.652 5.64 151.196 5.68 151.756 5.712C152.332 5.728 152.884 5.736 153.412 5.736C154.068 5.736 154.668 5.72 155.212 5.688C155.756 5.656 156.268 5.624 156.748 5.592V6.096C156.428 6.096 156.124 6.12 155.836 6.168C155.564 6.2 155.372 6.312 155.26 6.504C155.164 6.68 155.212 6.992 155.404 7.44L158.428 14.736L158.212 14.88L159.988 9.912C160.436 8.616 160.508 7.672 160.204 7.08C159.9 6.472 159.364 6.136 158.596 6.072V5.592C158.964 5.608 159.364 5.624 159.796 5.64C160.228 5.656 160.604 5.664 160.924 5.664C161.244 5.664 161.58 5.656 161.932 5.64C162.284 5.624 162.564 5.608 162.772 5.592ZM157.732 17.64L156.82 20.208C156.516 21.024 156.164 21.592 155.764 21.912C155.54 22.104 155.252 22.248 154.9 22.344C154.548 22.456 154.14 22.512 153.676 22.512C153.292 22.512 152.892 22.448 152.476 22.32C152.076 22.192 151.74 21.984 151.468 21.696C151.196 21.408 151.06 21.04 151.06 20.592C151.06 20.096 151.236 19.696 151.588 19.392C151.94 19.104 152.404 18.96 152.98 18.96C153.508 18.96 153.94 19.088 154.276 19.344C154.612 19.6 154.78 19.976 154.78 20.472C154.78 20.792 154.676 21.096 154.468 21.384C154.276 21.672 153.98 21.888 153.58 22.032C153.66 22.048 153.756 22.056 153.868 22.056C153.98 22.056 154.068 22.056 154.132 22.056C154.612 22.056 155.036 21.904 155.404 21.6C155.772 21.296 156.076 20.816 156.316 20.16L157.156 17.688L157.732 17.64Z" fill="#331B3B"/>
</svg>
