<svg width="36" height="36" viewBox="0 0 36 36" fill="none" xmlns="http://www.w3.org/2000/svg">
<path d="M16.3561 21.3901C14.7279 21.3901 13.1001 20.7701 11.8606 19.5306C9.382 17.0521 9.382 13.0185 11.8606 10.5399C14.3395 8.06135 18.3731 8.06096 20.8517 10.5399C23.3306 13.0185 23.3306 17.0521 20.8517 19.5306C19.6122 20.7701 17.984 21.3901 16.3561 21.3901ZM16.3557 9.46823C14.9296 9.46823 13.503 10.011 12.4171 11.0968C10.2454 13.2686 10.2454 16.8019 12.4171 18.9737C14.5889 21.1455 18.1226 21.1455 20.2944 18.9737C22.4661 16.8019 22.4661 13.2686 20.2944 11.0968C19.2085 10.0114 17.7823 9.46823 16.3557 9.46823Z" fill="#331B3B"/>
<path d="M29.272 25.8647L24.0371 20.6295C23.559 20.1513 22.8335 20.0765 22.2707 20.3936L21.1155 19.2384C23.3195 16.7444 23.236 12.9247 20.8512 10.5403C18.373 8.06132 14.3391 8.06172 11.8601 10.5403C9.38152 13.0189 9.38152 17.0524 11.8601 19.531C13.0996 20.7701 14.7274 21.3904 16.3556 21.3904C17.8602 21.3904 19.3608 20.854 20.5585 19.7957L21.7137 20.9509C21.3967 21.5137 21.4711 22.2388 21.9497 22.7173L27.1849 27.9522C27.4626 28.2302 27.8332 28.3834 28.2282 28.3834C28.6233 28.3834 28.9939 28.2302 29.2716 27.9522C29.5496 27.6741 29.7029 27.3035 29.7029 26.9084C29.7029 26.5134 29.55 26.1424 29.272 25.8647ZM12.4174 18.9741C10.2457 16.8023 10.2457 13.269 12.4174 11.0972C13.5033 10.0113 14.9295 9.46859 16.356 9.46859C17.7826 9.46859 19.2088 10.0113 20.2947 11.0972C22.4664 13.269 22.4664 16.8023 20.2947 18.9741C18.1229 21.1458 14.5888 21.1454 12.4174 18.9741ZM28.715 27.3952C28.4567 27.6536 28.0006 27.6536 27.7418 27.3952L22.5066 22.16C22.2384 21.8914 22.2384 21.455 22.5066 21.1864C22.6409 21.0525 22.817 20.9851 22.9934 20.9851C23.1695 20.9851 23.3459 21.0521 23.4798 21.1864L28.7147 26.4216C28.8438 26.5508 28.9151 26.7237 28.9151 26.908C28.9151 27.0924 28.8442 27.2657 28.715 27.3952Z" fill="#331B3B"/>
<path d="M12.2343 17.2986C12.1149 17.2986 11.9972 17.2446 11.92 17.1426C11.7888 16.9693 11.8227 16.722 11.9964 16.5908L17.6802 12.289C17.7692 12.2221 17.8819 12.1953 17.9914 12.2162C18.1005 12.237 18.1962 12.3028 18.2541 12.3977L20.0143 15.2828L20.6066 14.8574C20.7823 14.7298 21.0288 14.7708 21.1565 14.9476C21.2833 15.1244 21.2431 15.3702 21.0663 15.4974L20.1293 16.1705C20.0402 16.2344 19.928 16.2592 19.8217 16.2367C19.7141 16.2151 19.6204 16.1493 19.5637 16.0559L17.809 13.1799L12.4722 17.2186C12.4005 17.2726 12.317 17.2986 12.2343 17.2986Z" fill="#331B3B"/>
<path d="M26.5795 21.8631C26.7974 21.8631 26.9734 21.687 26.9734 21.4692V2.24044C26.9734 1.15732 26.0923 0.276245 25.0092 0.276245H8.26061C7.17749 0.276245 6.29681 1.15732 6.29681 2.24044V33.7601C6.29681 34.8428 7.17788 35.7239 8.26061 35.7239H25.0088C26.0919 35.7239 26.973 34.8428 26.973 33.7601V28.975C26.973 28.7572 26.797 28.5812 26.5792 28.5812C26.3613 28.5812 26.1853 28.7572 26.1853 28.975V29.9932H7.08454V18.3108L8.10464 19.9804C8.16254 20.0753 8.25825 20.1411 8.36735 20.162C8.39177 20.1667 8.41619 20.1691 8.44061 20.1691C8.52568 20.1691 8.60918 20.1415 8.6785 20.0895L9.92704 19.145C10.1003 19.0135 10.1346 18.7665 10.0035 18.5932C9.8719 18.4199 9.62495 18.3856 9.45165 18.5168L8.5501 19.199L7.08454 16.8004V4.79464H26.1857V10.8499L23.3479 12.8889C23.1711 13.0157 23.1305 13.2619 23.2577 13.4387C23.3345 13.5459 23.4554 13.603 23.5779 13.603C23.6575 13.603 23.7378 13.5789 23.8072 13.5289L26.1857 11.82V21.4696C26.1857 21.6866 26.3617 21.8631 26.5795 21.8631ZM26.1857 30.7809V33.7597C26.1857 34.408 25.6579 34.9357 25.0092 34.9357H8.26061C7.61231 34.9357 7.08454 34.408 7.08454 33.7597V30.7809H26.1857ZM7.08454 4.00691V2.24044C7.08454 1.59175 7.61231 1.06397 8.26061 1.06397H25.0088C25.6575 1.06397 26.1853 1.59175 26.1853 2.24044V4.00691H7.08454Z" fill="#331B3B"/>
<path d="M16.6349 34.278C15.8638 34.278 15.2363 33.6506 15.2363 32.8794C15.2363 32.1082 15.8638 31.4804 16.6349 31.4804C17.4061 31.4804 18.0335 32.1082 18.0335 32.8794C18.0335 33.6506 17.4061 34.278 16.6349 34.278ZM16.6349 32.2685C16.2982 32.2685 16.0241 32.5427 16.0241 32.8798C16.0241 33.2169 16.2982 33.4907 16.6349 33.4907C16.9717 33.4907 17.2458 33.2169 17.2458 32.8798C17.2458 32.5427 16.9721 32.2685 16.6349 32.2685Z" fill="#331B3B"/>
<path d="M19.032 2.90247H14.2379C14.0204 2.90247 13.844 2.72602 13.844 2.50861C13.844 2.2912 14.0204 2.11475 14.2379 2.11475H19.032C19.2498 2.11475 19.4258 2.2912 19.4258 2.50861C19.4258 2.72602 19.2498 2.90247 19.032 2.90247Z" fill="#331B3B"/>
</svg>
